# xmcd
#
# Track frame offsets:
#	150
#	17398
#	34515
#	51329
#	69794
#	86148
#	103305
#	120826
#	137036
#	152025
#	167500
#	182030
#
# Disc length: 2649 seconds
#
# Revision: 0
# Processed by: cddbd v1.5.2PL0 Copyright (c) Steve Scherf et al.
# Submitted via: EasyCDDAExtractor 12.0.0.1
#
DISCID=8f0a570c
DTITLE=Ednita Nazario - Soy
DYEAR=2009
DGENRE=Latin
TTITLE0=Me Voy
TTITLE1=Sin Querer
TTITLE2=Dejame Ser
TTITLE3=Confesados
TTITLE4=Sin Pausas
TTITLE5=Intoxicandome
TTITLE6=Dos Eternidades
TTITLE7=Yo Quiero Mas
TTITLE8=Soy Como Soy
TTITLE9=Mi Libertad
TTITLE10=Se Que Voy A Reir
TTITLE11=La Fuerza De Un Te Quiero
EXTD=
EXTT0=
EXTT1=
EXTT2=
EXTT3=
EXTT4=
EXTT5=
EXTT6=
EXTT7=
EXTT8=
EXTT9=
EXTT10=
EXTT11=
PLAYORDER=
